<?xml version="1.0" encoding="UTF-8"?>
<svg width="1.875em" height="1.5em" viewBox="0 0 30 24" version="1.1" xmlns="http://www.w3.org/2000/svg" xmlns:xlink="http://www.w3.org/1999/xlink">
    <title>logo</title>
    <g id="🖥-Dashboard" stroke="none" stroke-width="1" fill="none" fill-rule="evenodd">
        <g id="Artboard" transform="translate(-95.000000, -50.000000)">
            <g id="logo" transform="translate(95.000000, 50.000000)">
                <path d="M30,21.3918362 C30,21.7535219 29.9019196,22.1084381 29.7162004,22.4188007 C29.1490236,23.366632 27.9208668,23.6752135 26.9730355,23.1080366 L26.9730355,23.1080366 L23.714971,21.1584295 C23.1114106,20.7972624 22.7419355,20.1455972 22.7419355,19.4422291 L22.7419355,19.4422291 L22.741,12.7425689 L15,17.1774194 L7.258,12.7425689 L7.25806452,19.4422291 C7.25806452,20.1455972 6.88858935,20.7972624 6.28502902,21.1584295 L3.0269645,23.1080366 C2.07913318,23.6752135 0.850976404,23.366632 0.283799571,22.4188007 C0.0980803893,22.1084381 2.0190442e-15,21.7535219 0,21.3918362 L0,3.58469444 L0.00548573643,3.43543209 L0.00548573643,3.43543209 L0,3.5715689 C3.0881846e-16,2.4669994 0.8954305,1.5715689 2,1.5715689 C2.36889529,1.5715689 2.73060353,1.67359571 3.04512412,1.86636639 L15,9.19354839 L26.9548759,1.86636639 C27.2693965,1.67359571 27.6311047,1.5715689 28,1.5715689 C29.1045695,1.5715689 30,2.4669994 30,3.5715689 L30,3.5715689 Z" id="Combined-Shape" fill="currentColor"></path>
                <polygon id="Rectangle" fill="#000000" opacity="0.077704" points="0 8.58870968 7.25806452 12.7505183 7.25806452 16.8305646"></polygon>
                <polygon id="Rectangle" fill="#000000" opacity="0.077704" points="0 8.58870968 7.25806452 12.6445567 7.25806452 15.1370162"></polygon>
                <polygon id="Rectangle" fill="#000000" opacity="0.077704" transform="translate(26.370968, 12.771227) scale(-1, 1) translate(-26.370968, -12.771227) " points="22.7419355 8.58870968 30 12.7417372 30 16.9537453"></polygon>
                <polygon id="Rectangle" fill="#000000" opacity="0.077704" transform="translate(26.370968, 11.924453) scale(-1, 1) translate(-26.370968, -11.924453) " points="22.7419355 8.58870968 30 12.6409734 30 15.2601969"></polygon>
                <path d="M3.04512412,1.86636639 L15,9.19354839 L15,9.19354839 L15,17.1774194 L0,8.58649679 L0,3.5715689 C3.0881846e-16,2.4669994 0.8954305,1.5715689 2,1.5715689 C2.36889529,1.5715689 2.73060353,1.67359571 3.04512412,1.86636639 Z" id="Rectangle" fill-opacity="0.15" fill="#FFFFFF"></path>
                <path d="M18.0451241,1.86636639 L30,9.19354839 L30,9.19354839 L30,17.1774194 L15,8.58649679 L15,3.5715689 C15,2.4669994 15.8954305,1.5715689 17,1.5715689 C17.3688953,1.5715689 17.7306035,1.67359571 18.0451241,1.86636639 Z" id="Rectangle" fill-opacity="0.35" fill="#FFFFFF" transform="translate(22.500000, 8.588710) scale(-1, 1) translate(-22.500000, -8.588710) "></path>
            </g>
        </g>
    </g>
</svg>
